<svg xmlns="http://www.w3.org/2000/svg" width="256" height="256"><g stroke-width="1.77"><path d="M128 .875C57.796.875.906 57.719.906 127.844h.219C1.125 95.843 37.177 16.874 128 16.75h.219c61.332.116 111.031 49.808 111.031 111.094h15.875C255.125 57.719 198.204.875 128 .875zM172.094 64c-8.138 0-15.644 1.935-22.406 5.813-5.668 3.19-14.38 10.22-18.438 14.843l-3.969 83.156c4.531 4.985 15.298 14.182 21.125 17.032 7.86 3.841 17.426 5.781 28.438 5.781 4.226 0 7.87-.269 10.969-.781 20.35-5.75 29.28-12.485 29.53-12.688 16.025-12.88 24.613-25.833 37.25-48.437H239c-8.86 21.02-27.067 35.5-29.5 37.094-2.431 1.595-5.387 3.288-8.875 5a60.448 60.448 0 0 1-11 3.875 49.66 49.66 0 0 1-13 1.718c-5.388 0-10.449-.781-15.094-2.375-4.546-1.597-8.678-4.238-12.375-8-3.696-3.76-6.554-8.667-8.562-14.594-2.114-6.044-4.125-15.965-4.125-24.28l82.437.437v-7.031c0-1.907-.063-3.748-.156-5.563-.77-15.043-4.71-27.114-11.688-36.063C199.136 69.017 187.523 64 172.094 64zm.281 15.563c5.231 0 9.714.764 13.531 2.562 3.814 1.684 6.852 3.944 9.031 6.75 2.287 2.81 3.91 6.304 5 10.125 1.2 3.928 1.85 8.056 2.282 12.438h-64.156a50.233 50.233 0 0 1 3.593-12.563c1.745-3.932 4.04-7.32 6.875-10.125 3.052-3.031 6.418-5.271 10.125-6.844 3.593-1.572 8.164-2.344 13.719-2.344z" fill="#329600" stroke="#329600"/><path d="M85.781 64.656c-6.572 0-13.507.73-20.562 2.156-25.238 5.926-44.918 22.126-58.5 48.126-4.359 8.344-5.584 12.833-5.594 12.874H17c16.117-38.697 38.037-44.004 47.406-46.28l2.375-.626c9.059-1.403 12.826-1.469 18.688-1.469 4.638 0 8.799.351 12.375 1.032 3.734.687 6.715 1.808 9.156 3.469 2.769 1.67 4.948 4.133 6.469 7.312 1.524 3.185 2.281 7.103 2.281 11.969l.219 8.5c-4.528.086-8.985-.108-13.281-.281-6.183-.253-12.023-.466-17.782.062-9.8 1.016-18.038 2.958-24.531 5.781-6.793 3.04-12.165 7.362-15.938 12.875-3.661 5.511-5.5 13.1-5.5 22.531 0 11.153 3.606 20.411 10.72 27.5 7.147 7.133 15.92 10.75 26.093 10.75 7.476 0 13.89-.844 19.094-2.5 4.658-1.513 9.446-3.746 14.219-6.593 3.63-2.326 6.815-4.809 9.687-7.594l6.781-6.438 4.031-82.968c-3.743-6.339-9.198-11.359-16.218-14.969-6.942-3.455-16.208-5.219-27.563-5.219zm28.906 62.406c0 5.27.349 10.32 1 14.938.762 4.721 1.736 8.999 3.157 12.844-4.686 4.832-10.341 8.782-16.875 11.969-6.649 3.079-13.201 4.718-19.625 4.718-7.845 0-13.72-1.623-17.75-5.031-3.924-3.294-5.906-8.367-5.906-15.063 0-5.826 1.633-10.327 4.906-13.625 3.376-3.294 7.644-5.604 12.875-7.03 5.338-1.539 11.31-2.512 18.062-2.845 6.645-.436 13.405-.656 20.156-.874zm-113.78 1.72c0 69.765 56.89 126.312 127.093 126.312 70.206 0 127.125-56.547 127.125-126.313h-.219c0 31.835-36.083 110.41-126.906 110.531h-.219c-61.316-.13-111-49.569-111-110.53H.906z" fill="#c83200" stroke="#c83200"/></g></svg>